<?xml version="1.0" encoding="utf-8"?>
<!-- Generator: Adobe Illustrator 16.0.0, SVG Export Plug-In . SVG Version: 6.00 Build 0)  -->
<!DOCTYPE svg PUBLIC "-//W3C//DTD SVG 1.1//EN" "http://www.w3.org/Graphics/SVG/1.1/DTD/svg11.dtd">
<svg version="1.1" id="Layer_1" xmlns="http://www.w3.org/2000/svg" xmlns:xlink="http://www.w3.org/1999/xlink" x="0px" y="0px"
	 width="16px" height="16px" viewBox="0 0 16 16" enable-background="new 0 0 16 16" xml:space="preserve">
<path d="M6.427,14.82l9.041-10.027c0.568-0.562,0.581-1.491,0.025-2.068L14.31,1.563c-0.277-0.29-0.651-0.383-1.053-0.383h-0.011
	c-0.397,0-0.771,0.084-1.058,0.376L6.42,7.536L3.803,4.924C3.526,4.633,3.153,4.461,2.753,4.456C2.333,4.44,1.975,4.601,1.69,4.883
	L0.533,6.04c-0.572,0.571-0.575,1.501-0.037,2.047L6.427,14.82 M2.749,5.938l3.697,3.666l6.8-7.09l1.156,1.264L6.44,12.604
	L1.575,7.081L2.749,5.938z"/>
</svg>
