<?xml version="1.0" encoding="utf-8"?>
<!-- Generator: Adobe Illustrator 16.0.0, SVG Export Plug-In . SVG Version: 6.00 Build 0)  -->
<!DOCTYPE svg PUBLIC "-//W3C//DTD SVG 1.1//EN" "http://www.w3.org/Graphics/SVG/1.1/DTD/svg11.dtd">
<svg version="1.1" id="Layer_1" xmlns="http://www.w3.org/2000/svg" xmlns:xlink="http://www.w3.org/1999/xlink" x="0px" y="0px"
	 width="16px" height="13.553px" viewBox="0 0 16 13.553" enable-background="new 0 0 16 13.553" xml:space="preserve">
<path d="M13.862,0.326H2.311c-1.062,0-1.926,0.864-1.926,1.925v8.986c0,1.062,0.863,1.926,1.926,1.926h11.552
	c1.062,0,1.926-0.863,1.926-1.926V2.25C15.788,1.189,14.924,0.326,13.862,0.326 M2.311,1.609h11.552
	c0.354,0,0.642,0.289,0.642,0.642v4.87l-3.208-3.209L7.748,7.458L5.477,5.944L1.668,9.117V2.25C1.668,1.897,1.957,1.609,2.311,1.609
	z M14.504,11.236c0,0.354-0.288,0.643-0.642,0.643H2.311c-0.354,0-0.642-0.289-0.642-0.643v-0.447l3.894-3.246l3.987,2.658
	l0.712-1.068L8.838,8.185l2.458-2.459l3.208,3.21V11.236z"/>
<path d="M4.878,4.818c0.708,0,1.283-0.575,1.283-1.284S5.586,2.25,4.878,2.25c-0.709,0-1.284,0.575-1.284,1.284
	S4.169,4.818,4.878,4.818"/>
</svg>
