<?xml version="1.0" encoding="utf-8"?>
<!-- Generator: Adobe Illustrator 16.0.0, SVG Export Plug-In . SVG Version: 6.00 Build 0)  -->
<!DOCTYPE svg PUBLIC "-//W3C//DTD SVG 1.1//EN" "http://www.w3.org/Graphics/SVG/1.1/DTD/svg11.dtd">
<svg version="1.1" id="Layer_1" xmlns="http://www.w3.org/2000/svg" xmlns:xlink="http://www.w3.org/1999/xlink" x="0px" y="0px"
	 width="16px" height="16px" viewBox="0 0 16 16" enable-background="new 0 0 16 16" xml:space="preserve">
<g>
	<path d="M8,0.107C3.642,0.107,0.107,3.641,0.107,8c0,4.358,3.534,7.893,7.893,7.893c4.359,0,7.893-3.534,7.893-7.893
		C15.893,3.641,12.359,0.107,8,0.107 M13.599,4.564l-3.315-0.474L9.585,3.394c0.526-0.532,1.032-1.039,1.293-1.299
		C12.003,2.646,12.945,3.505,13.599,4.564z M1.423,8c0-2.094,0.986-3.958,2.516-5.163c0.595,0.522,1.523,1.546,1.435,2.469
		C5.319,5.845,4.888,6.523,4.154,7.215C3.3,8.02,3.022,9.238,3.446,10.318c0.313,0.804,0.641,1.888,0.687,2.99
		C2.493,12.11,1.423,10.18,1.423,8z M8,14.578c-0.909,0-1.775-0.188-2.564-0.521c0.111-1.562-0.337-3.125-0.765-4.218
		C4.443,9.261,4.596,8.606,5.057,8.171c0.993-0.937,1.54-1.857,1.625-2.739c0.136-1.396-0.875-2.635-1.589-3.323
		C5.971,1.674,6.956,1.423,8,1.423c0.521,0,1.023,0.067,1.507,0.181C9.212,1.9,8.791,2.324,8.189,2.934L7.731,3.399l1.933,1.933
		l4.597,0.656C14.465,6.624,14.578,7.299,14.578,8C14.578,11.626,11.627,14.578,8,14.578z"/>
	<path d="M12.784,7.745c-0.151-0.562-0.576-1.008-1.136-1.196l-1.557-0.521H9.983c-0.638,0-1.231,0.317-1.587,0.849L7.865,7.674
		C7.479,8.252,7.434,8.995,7.743,9.616l0.287,0.572l0.444,2.221c0.087,0.433,0.402,0.78,0.824,0.908
		c0.114,0.035,0.231,0.052,0.347,0.052c0.312,0,0.616-0.123,0.843-0.35l0.726-0.727l0.048-0.16c0.274-0.929,0.77-2.069,1.07-2.282
		C12.723,9.566,13.118,8.975,12.784,7.745 M11.562,8.78c-0.737,0.533-1.3,2.13-1.511,2.817l-0.332,0.33L9.303,9.845L8.92,9.027
		C8.821,8.828,8.837,8.59,8.959,8.405l0.534-0.799c0.094-0.14,0.24-0.232,0.403-0.256l1.334,0.447
		c0.143,0.048,0.247,0.156,0.284,0.292C11.641,8.552,11.583,8.754,11.562,8.78z"/>
</g>
</svg>
