<svg xmlns="http://www.w3.org/2000/svg" viewBox="0 0 118.56 47.03"><defs><style>.cls-1{fill:#fff;}.cls-2{fill:none;stroke:#009cff;stroke-miterlimit:10;stroke-width:1.9px;}</style></defs><title>Asset 3</title><g id="Layer_2" data-name="Layer 2"><g id="Layer_1-2" data-name="Layer 1"><path class="cls-1" d="M46.47,6H47V5.69a1.45,1.45,0,0,0-1.64-1.64,4.08,4.08,0,0,0-2.19.74l-.59-1a4.92,4.92,0,0,1,2.91-.91,2.65,2.65,0,0,1,3,3V9.22a.3.3,0,0,0,.33.33h.77v1.14H48c-.68,0-1-.33-1-.83v-.1a1.88,1.88,0,0,1,.06-.5h0a2.78,2.78,0,0,1-2.53,1.62A2.33,2.33,0,0,1,42,8.55C42,6.15,45.2,6,46.47,6m-1.6,3.75A2.36,2.36,0,0,0,47,7.25V6.93h-.38c-.7,0-3.1,0-3.1,1.5a1.29,1.29,0,0,0,1.38,1.3"/><path class="cls-1" d="M50.63,9.55h1.2V4.48a.29.29,0,0,0-.33-.32h-.94V3h1.73c.65,0,1,.29,1,.85v.39a2.13,2.13,0,0,1,0,.44h0A3.16,3.16,0,0,1,56,2.85a2,2,0,0,1,2.24,1.8h0A3.09,3.09,0,0,1,61,2.85c1.7,0,2.5,1,2.5,2.94V9.55h1.21v1.14H62V6.1c0-1.07-.2-1.92-1.35-1.92-1.44,0-2.26,1.47-2.26,3V9.55h1.2v1.14H56.93V6.1c0-1-.15-1.92-1.33-1.92-1.45,0-2.3,1.54-2.3,3V9.55h1.21v1.14H50.63Z"/><path class="cls-1" d="M70,6h.49V5.69a1.45,1.45,0,0,0-1.64-1.64,4.08,4.08,0,0,0-2.19.74l-.59-1A4.92,4.92,0,0,1,69,2.85a2.65,2.65,0,0,1,3,3V9.22a.3.3,0,0,0,.33.33h.77v1.14H71.54c-.68,0-1-.33-1-.83v-.1a1.88,1.88,0,0,1,.06-.5h0a2.78,2.78,0,0,1-2.53,1.62,2.33,2.33,0,0,1-2.54-2.32C65.54,6.15,68.74,6,70,6m-1.6,3.75a2.36,2.36,0,0,0,2.1-2.48V6.93h-.38c-.7,0-3.1,0-3.1,1.5a1.29,1.29,0,0,0,1.38,1.3"/><path class="cls-1" d="M74.9,4.16H73.61V3h1.32V.92h1.44V3H78.2V4.16H76.37V7.75c0,1.56,1.06,1.76,1.64,1.76l.35,0v1.23a4.18,4.18,0,0,1-.53,0A2.64,2.64,0,0,1,74.9,7.89Z"/><path class="cls-1" d="M83.24,2.85c2.18,0,3.31,1.6,3.31,3.59,0,.2,0,.56,0,.56h-5.6a2.58,2.58,0,0,0,2.65,2.6,3.72,3.72,0,0,0,2.29-.86l.61,1.08a4.69,4.69,0,0,1-3,1.06,3.9,3.9,0,0,1-4.06-4,3.75,3.75,0,0,1,3.83-4M85,6.06a1.87,1.87,0,0,0-1.83-2,2.25,2.25,0,0,0-2.24,2ZM83.91,0h1.68L83.71,1.92H82.33Z"/><path class="cls-1" d="M87.95,9.55H89.1V4.49a.3.3,0,0,0-.33-.33h-1V3h1.72c.67,0,1,.27,1,.89V4.4a4.51,4.51,0,0,1,0,.53h0a2.46,2.46,0,0,1,2.8-2V4.42a1.91,1.91,0,0,0-.42,0c-1.64,0-2.33,1.65-2.33,3.15v2H91.7v1.14H87.95Z"/><path class="cls-1" d="M94.2,8.22h1.29v.5c0,.65.91,1,1.76,1s1.54-.35,1.54-1-.85-1-1.91-1.39S94.49,6.36,94.49,5,96,2.85,97.32,2.85c1.07,0,2.65.42,2.65,1.54v.92H98.68v-.5c0-.47-.6-.79-1.35-.79S96,4.33,96,4.95s.85,1,1.77,1.35c1.18.39,2.53.89,2.53,2.32s-1.33,2.25-3.07,2.25c-1.39,0-3-.62-3-1.83Z"/><path class="cls-1" d="M101.36,9.55h1.21V1.13h-1.29V0H104V6h1.12l1.53-1.8h-1V3h3.48V4.16h-1l-1.89,2.21v0s.26.11.56.62l1.3,2.22c.15.24.27.3.67.3h.48v1.14h-1.15a1.13,1.13,0,0,1-1.26-.71l-1.51-2.59c-.17-.27-.38-.3-.71-.3H104V9.55h1v1.14h-3.69Z"/><path class="cls-1" d="M111.82,12.64a1.57,1.57,0,0,0,1.41-1.06l.32-.76-2.68-6.66h-1V3h3.5V4.16h-1l1.71,4.56a3.54,3.54,0,0,1,.14.67h0a4.61,4.61,0,0,1,.18-.67l1.7-4.56h-1V3h3.39V4.16h-1l-3,7.74a2.83,2.83,0,0,1-2.69,2,3,3,0,0,1-1.65-.48l.5-1.11a1.84,1.84,0,0,0,1.09.36M115,0h1.68l-1.88,1.92h-1.38Z"/><path class="cls-1" d="M45.62,19.5A2.59,2.59,0,0,1,48,20.79h0a3.48,3.48,0,0,1,0-.58V17.79H46.7V16.66h2.74v9.22a.3.3,0,0,0,.33.33h.77v1.13H49c-.68,0-1-.33-1-.83V26.4a1.54,1.54,0,0,1,0-.41h0a2.74,2.74,0,0,1-2.59,1.53c-2.06,0-3.35-1.63-3.35-4s1.42-4,3.48-4m.18,6.75c1.13,0,2.21-.82,2.21-2.72,0-1.41-.71-2.74-2.17-2.74-1.23,0-2.21,1-2.21,2.72s.89,2.74,2.17,2.74"/><path class="cls-1" d="M51.75,26.21h1.2V20.82H51.68V19.68h2.74v6.52h1.21v1.13H51.75Zm1.17-9.55h1.54v1.5H52.92Z"/><path class="cls-1" d="M56.11,19.68h3.44v1.14h-1l1.62,4.47a3.68,3.68,0,0,1,.17.71h0a3.68,3.68,0,0,1,.17-.71l1.64-4.47h-1V19.68h3.42v1.14h-1L61.2,27.34H59.55l-2.47-6.52h-1Z"/><path class="cls-1" d="M69.74,22.63h.49v-.29a1.45,1.45,0,0,0-1.64-1.63,4.07,4.07,0,0,0-2.19.74l-.59-1a4.92,4.92,0,0,1,2.91-.91,2.65,2.65,0,0,1,3,3v3.42a.3.3,0,0,0,.33.33h.77v1.14H71.27c-.68,0-1-.33-1-.83V26.4a1.87,1.87,0,0,1,.06-.5h0a2.78,2.78,0,0,1-2.53,1.62,2.33,2.33,0,0,1-2.54-2.32c0-2.41,3.19-2.57,4.46-2.57m-1.6,3.75a2.36,2.36,0,0,0,2.1-2.48v-.32h-.38c-.7,0-3.1,0-3.1,1.5a1.29,1.29,0,0,0,1.38,1.3"/><path class="cls-1" d="M77.29,19.5a2.59,2.59,0,0,1,2.36,1.29h0a3.48,3.48,0,0,1,0-.58V17.79H78.37V16.66h2.74v9.22a.3.3,0,0,0,.33.33h.77v1.13H80.68c-.68,0-1-.33-1-.83V26.4a1.54,1.54,0,0,1,0-.41h0a2.74,2.74,0,0,1-2.59,1.53c-2.06,0-3.35-1.63-3.35-4s1.42-4,3.48-4m.18,6.75c1.13,0,2.21-.82,2.21-2.72,0-1.41-.71-2.74-2.17-2.74-1.23,0-2.21,1-2.21,2.72s.89,2.74,2.17,2.74"/><path class="cls-1" d="M87.15,19.5c2.18,0,3.32,1.61,3.32,3.59,0,.2,0,.56,0,.56h-5.6a2.58,2.58,0,0,0,2.65,2.6,3.73,3.73,0,0,0,2.28-.86l.61,1.07a4.7,4.7,0,0,1-3,1.06,3.9,3.9,0,0,1-4.06-4,3.75,3.75,0,0,1,3.83-4m1.8,3.21a1.87,1.87,0,0,0-1.83-2,2.25,2.25,0,0,0-2.24,2Z"/><path class="cls-1" d="M92.38,17.79H91.11V16.66h2.74v8.42c0,.65.15,1.09.82,1.09l.41,0v1.21s-.3,0-.65,0c-1.09,0-2-.44-2-2.23Z"/><path class="cls-1" d="M96.26,26.21h1.2V21.15a.3.3,0,0,0-.33-.33h-.94V19.68h1.73c.67,0,1,.29,1,.85v.39a2.15,2.15,0,0,1,0,.44h0a3.22,3.22,0,0,1,3-1.86c1.76,0,2.54,1,2.54,2.94v3.77h1.21v1.14h-2.68V22.77c0-1.07-.21-1.92-1.44-1.92a2.74,2.74,0,0,0-2.56,2.94v2.42h1.21v1.14H96.26Z"/><path class="cls-1" d="M106.67,26.21h1.12V20.82h-1.15V19.68h2.62v6.53h1.11v1.13h-3.69Zm2.5-9.55h1.68L109,18.58H107.6Z"/><path class="cls-1" d="M42.11,41.53H43.4V42c0,.65.91,1,1.76,1s1.54-.35,1.54-1-.85-1-1.91-1.39-2.39-.94-2.39-2.33,1.5-2.12,2.83-2.12c1.07,0,2.65.42,2.65,1.54v.92H46.59v-.5c0-.47-.6-.79-1.35-.79s-1.36.3-1.36.92.85,1,1.77,1.35c1.18.39,2.53.89,2.53,2.32s-1.33,2.25-3.07,2.25c-1.39,0-3-.62-3-1.83Z"/><path class="cls-1" d="M50.5,45.89V37.81a.3.3,0,0,0-.33-.33h-.94V36.34h1.69c.68,0,.94.3.94.76v.06a3.18,3.18,0,0,1,0,.44h0a2.75,2.75,0,0,1,2.57-1.44c2.06,0,3.36,1.64,3.36,4s-1.47,4-3.47,4A2.73,2.73,0,0,1,52,42.88h0a4.41,4.41,0,0,1,0,.67v2.35h1.21V47H49.3V45.89Zm3.6-3c1.21,0,2.21-1,2.21-2.72s-.89-2.74-2.18-2.74c-1.14,0-2.19.8-2.19,2.75,0,1.36.74,2.71,2.17,2.71"/><path class="cls-1" d="M63.17,36.16a4,4,0,1,1-4.13,4,4,4,0,0,1,4.13-4m0,6.75a2.74,2.74,0,1,0-2.63-2.75,2.66,2.66,0,0,0,2.63,2.75"/><path class="cls-1" d="M69.19,34.45H67.92V33.31h2.74v8.42c0,.65.15,1.09.82,1.09l.41,0V44s-.3,0-.65,0c-1.09,0-2-.44-2-2.23Z"/><path class="cls-1" d="M76.73,36.16c2.18,0,3.32,1.61,3.32,3.59,0,.2,0,.56,0,.56H74.4A2.58,2.58,0,0,0,77,42.91,3.73,3.73,0,0,0,79.33,42l.61,1.07a4.7,4.7,0,0,1-3,1.06,3.9,3.9,0,0,1-4.06-4,3.75,3.75,0,0,1,3.83-4m1.8,3.21a1.87,1.87,0,0,0-1.83-2,2.25,2.25,0,0,0-2.24,2Z"/><path class="cls-1" d="M81.17,42.86h1.21V34.45H81.09V33.31h2.74v6H85l1.53-1.8h-1V36.34H89v1.13h-1l-1.89,2.21v0s.26.1.56.62l1.3,2.23c.15.24.27.3.67.3h.48V44H87.92a1.13,1.13,0,0,1-1.26-.71L85.15,40.7c-.17-.27-.38-.3-.71-.3h-.61v2.47h1V44H81.17Z"/><path class="cls-2" d="M35.19,46c0-2.5-2.61-5.55-2.61-7.55s2.61-5.55,2.61-7.55-2.61-5.56-2.61-7.55,2.61-5.55,2.61-7.55-2.61-5.56-2.61-7.55S35.19,2.66,35.19.67"/><path class="cls-1" d="M1.07,19.68H3.26V6H1.07V4H8.7a10.1,10.1,0,0,1,3.24.37A4.46,4.46,0,0,1,15,9a4.77,4.77,0,0,1-3.64,4.93v0a2.11,2.11,0,0,1,.75.82l2.49,4.34c.27.47.6.57,1.22.57h.52v1.94H14.85c-1.49,0-1.84-.27-2.44-1.32L9.69,15.5a1.69,1.69,0,0,0-1.84-1H5.76v5.16H7.92v1.94H1.07Zm8.22-7.2a3,3,0,0,0,3.19-3.31A2.7,2.7,0,0,0,10.84,6.4a6.12,6.12,0,0,0-2.17-.32H5.76v6.4Z"/><path class="cls-1" d="M19.44,19.76h2V10.89H19.31V9h4.51V19.76h2v1.87H19.44ZM21.36,4H23.9V6.5H21.36Z"/><path class="cls-1" d="M4.39,42.4H6.6V36.89L1.67,28.67H0V26.75H6.06v1.92H4.21L7.48,34.2c.2.37.35.75.35.75h0a6,6,0,0,1,.37-.75l3.26-5.53H9.69V26.75h6v1.92H14L9.1,36.89V42.4h2.22v1.94H4.39Z"/><path class="cls-1" d="M20.26,31.44a6.61,6.61,0,1,1,0,13.21,6.61,6.61,0,1,1,0-13.21m0,11.11A4.51,4.51,0,1,0,15.93,38a4.37,4.37,0,0,0,4.34,4.53"/></g></g></svg>