<?xml version="1.0" encoding="utf-8"?>
<!-- Generator: Adobe Illustrator 16.0.0, SVG Export Plug-In . SVG Version: 6.00 Build 0)  -->
<!DOCTYPE svg PUBLIC "-//W3C//DTD SVG 1.1//EN" "http://www.w3.org/Graphics/SVG/1.1/DTD/svg11.dtd">
<svg version="1.1" id="Layer_1" xmlns="http://www.w3.org/2000/svg" xmlns:xlink="http://www.w3.org/1999/xlink" x="0px" y="0px"
	 width="792px" height="346px" viewBox="0 126.5 792 346" enable-background="new 0 126.5 792 346" xml:space="preserve">
<g id="mark">
	<path fill="#FFFFFF" d="M20.592,278.016H66V265.08H51.744v-34.056h13.728c7.128,0,9.24,1.584,12.144,6.336l17.952,31.944
		c3.96,6.864,6.336,8.712,16.104,8.712h10.032V265.08h-3.432c-4.224,0-6.336-0.528-8.184-3.696L93.72,232.608
		c-2.112-3.696-5.016-5.544-5.016-5.544V226.8c14.784-3.696,24.024-15.84,24.024-32.736c0-15.84-8.184-26.136-20.328-30.096
		c-6.336-2.112-13.2-2.376-21.384-2.376H20.592v12.672h14.52v90.816h-14.52V278.016z M51.48,217.56v-42.504h19.272
		c5.544,0,10.56,0.528,14.256,2.112c7.392,2.904,10.824,9.24,10.824,18.216c0,13.728-8.448,21.912-21.12,21.912H51.48V217.56z"/>
	<path fill="#FFFFFF" d="M154.968,177.96H171.6v-16.368h-16.896v16.368H154.968z M142.296,278.016h42.24v-12.408h-13.2v-71.016
		H141.24V207h13.728v58.608h-12.936v12.408H142.296z"/>
	<path fill="#FFFFFF" d="M37.752,426.648h45.936v-12.938H68.904V377.28l32.736-54.384h11.088v-12.674H72.864v12.674h12.144
		L63.36,359.592c-1.584,2.376-2.376,5.018-2.376,5.018H60.72c0,0-1.056-2.376-2.376-5.018l-21.648-36.694H48.84v-12.674H8.712
		v12.674H19.8l32.736,54.384v36.432H37.752V426.648z"/>
	<path fill="#FFFFFF" d="M97.68,384.672c0,25.344,20.064,43.824,45.144,43.824c25.08,0,45.144-18.48,45.144-43.824
		s-20.064-43.56-45.144-43.56C117.744,341.112,97.68,359.592,97.68,384.672z M114.048,384.672c0-17.424,12.936-29.568,28.776-29.568
		c15.576,0,28.776,12.408,28.776,29.568c0,17.424-12.936,30.096-28.776,30.096C126.984,414.768,114.048,402.096,114.048,384.672z"/>
</g>
<g id="claim">
	<path fill="#FFFFFF" d="M279.576,198.816c0,10.296,8.184,15.048,16.632,15.048c12.144,0,16.632-10.56,16.632-10.56h0.264
		c0,0-0.264,1.32-0.264,3.168v0.792c0,3.168,1.848,5.544,6.336,5.544h10.032v-7.392h-5.016c-1.32,0-2.112-0.792-2.112-2.112v-22.44
		c0-12.672-6.6-19.272-19.536-19.272c-11.616,0-19.008,5.808-19.008,5.808l3.96,6.864c0,0,6.336-4.752,14.256-4.752
		c6.072,0,10.56,2.64,10.56,10.56v1.848h-3.432C300.432,181.92,279.576,182.976,279.576,198.816z M289.344,198.024
		c0-9.504,15.84-9.768,20.328-9.768h2.376v2.112c0,7.656-5.28,16.368-13.728,16.368
		C292.512,206.472,289.344,202.512,289.344,198.024z"/>
	<path fill="#FFFFFF" d="M336.072,212.808h25.344v-7.392h-7.92v-15.312c0-9.768,5.544-19.8,15.048-19.8
		c7.656,0,8.712,6.072,8.712,12.672v30.096h17.424v-7.392h-7.92v-15.84c0-10.032,5.28-19.536,14.784-19.536
		c7.656,0,8.712,5.544,8.712,12.672v30.096h17.424v-7.392h-7.92v-24.552c0-12.672-5.278-19.272-16.368-19.272
		c-8.184,0-15.047,5.544-17.952,11.88h-0.264c-1.584-8.184-6.6-11.88-14.784-11.88S355.08,168.192,352.44,174h-0.264
		c0,0,0.264-1.32,0.264-2.904v-2.64c0-3.696-2.112-5.544-6.336-5.544h-11.352v7.392h6.072c1.32,0,2.112,0.792,2.112,2.112v33.264
		h-7.92v7.128H336.072z"/>
	<path fill="#FFFFFF" d="M433.488,198.816c0,10.296,8.184,15.048,16.632,15.048c12.144,0,16.632-10.56,16.632-10.56h0.264
		c0,0-0.264,1.32-0.264,3.168v0.792c0,3.168,1.848,5.544,6.336,5.544h10.032v-7.392h-5.28c-1.32,0-2.112-0.792-2.112-2.112v-22.44
		c0-12.672-6.6-19.272-19.534-19.272c-11.616,0-19.01,5.808-19.01,5.808l3.96,6.864c0,0,6.338-4.752,14.258-4.752
		c6.07,0,10.56,2.64,10.56,10.56v1.848h-3.168C454.608,181.92,433.488,182.976,433.488,198.816z M443.256,198.024
		c0-9.504,15.84-9.768,20.328-9.768h2.376v2.112c0,7.656-5.28,16.368-13.728,16.368
		C446.688,206.472,443.256,202.512,443.256,198.024z"/>
	<path fill="#FFFFFF" d="M495.528,194.592c0,16.632,12.672,18.744,19.008,18.744c2.112,0,3.432-0.264,3.432-0.264v-7.92
		c0,0-0.792,0-2.376,0c-3.694,0-10.56-1.32-10.56-11.616V170.04h11.88v-7.392h-11.88V148.92h-9.504v13.728h-8.712v7.392h8.446
		v24.552H495.528z"/>
	<path fill="#FFFFFF" d="M544.104,155.52h8.978l12.408-12.672H554.4L544.104,155.52z M525.096,187.728
		c0,14.784,10.824,26.136,26.4,26.136c11.88,0,19.536-6.864,19.536-6.864l-3.96-7.128c0,0-6.336,5.544-15.049,5.544
		c-8.977,0-16.633-5.808-17.425-16.896h36.696c0,0,0.264-2.376,0.264-3.696c0-12.936-7.392-23.496-21.646-23.496
		C535.656,161.592,525.096,171.888,525.096,187.728z M535.128,182.448c1.32-8.448,7.392-13.464,14.521-13.464
		c6.336,0,11.614,4.488,11.88,13.464H535.128z"/>
	<path fill="#FFFFFF" d="M580.8,212.808h24.552v-7.392h-7.392v-13.2c0-9.768,4.488-20.592,15.312-20.592
		c1.586,0,2.904,0.264,2.904,0.264v-9.504c0,0-1.318-0.264-2.376-0.264c-7.655,0-13.464,5.808-15.84,13.2h-0.264
		c0,0,0.264-1.584,0.264-3.432v-3.168c0-3.96-2.112-5.808-6.336-5.808h-11.353v7.392h6.337c1.318,0,2.11,0.792,2.11,2.112v33h-7.92
		L580.8,212.808L580.8,212.808z"/>
	<path fill="#FFFFFF" d="M621.72,201.984c0,7.92,10.562,11.88,19.536,11.88c11.354,0,20.064-5.28,20.064-14.784
		c0-9.24-8.712-12.672-16.633-15.048c-6.071-2.112-11.615-3.96-11.615-8.712c0-3.96,4.224-6.072,8.976-6.072s8.712,2.112,8.712,5.28
		v3.168h8.448v-6.072c0-7.392-10.296-10.032-17.424-10.032c-8.712,0-18.48,3.96-18.48,13.728c0,8.976,8.186,12.408,15.576,15.312
		c6.864,2.376,12.408,3.96,12.408,8.976c0,4.224-4.488,6.336-10.032,6.336s-11.616-2.112-11.616-6.336v-3.168h-8.446v5.544H621.72
		L621.72,201.984z"/>
	<path fill="#FFFFFF" d="M668.448,212.808h24.022v-7.392h-6.6v-16.104h3.96c2.112,0,3.432,0.264,4.752,2.112l10.032,16.896
		c2.111,3.96,3.695,4.752,8.184,4.752h7.393v-7.392h-3.168c-2.641,0-3.433-0.264-4.487-2.112l-8.448-14.52
		c-2.111-3.432-3.695-3.96-3.695-3.96v-0.528l12.407-14.52h6.601v-7.392h-22.704v7.392h6.601l-10.031,11.88h-7.393v-39.072H667.92
		v7.392h8.448v55.176h-7.92V212.808z"/>
	<path fill="#FFFFFF" d="M729.696,223.104l-3.168,7.128c0,0,4.486,3.168,10.822,3.168c7.656,0,14.257-4.224,17.688-12.936
		l19.8-50.688h6.336v-7.392H759v7.392h6.336l-11.088,29.832c-0.792,2.112-1.056,4.224-1.056,4.224h-0.266
		c0,0-0.264-2.112-0.792-4.224l-11.088-29.832h6.602v-7.392H724.68v7.392h6.336l17.425,43.56l-2.111,5.016
		c-1.584,3.96-5.017,6.864-9.24,6.864C732.864,225.216,729.696,223.104,729.696,223.104z"/>
	<path fill="#FFFFFF" d="M280.632,296.76c0,15.576,8.448,26.138,21.912,26.138c12.936,0,16.896-10.032,16.896-10.032h0.264
		c0,0-0.264,1.056-0.264,2.64v0.792c0,3.168,1.848,5.544,6.336,5.544h10.032v-7.392h-5.016c-1.32,0-2.112-0.792-2.112-2.112V251.88
		h-17.952v7.392h8.184v15.84c0,2.112,0.264,3.696,0.264,3.696h-0.264c0,0-3.96-8.448-15.576-8.448
		C289.872,270.36,280.632,280.656,280.632,296.76z M290.4,296.76c0-11.352,6.336-17.952,14.52-17.952
		c9.504,0,14.256,8.712,14.256,17.952c0,12.408-7.128,17.952-14.52,17.952C296.208,314.448,290.4,307.584,290.4,296.76z"/>
	<path fill="#FFFFFF" d="M351.12,261.648h10.032v-9.768H351.12V261.648z M343.464,321.576h25.344v-7.394h-7.92V271.68h-17.952v7.392
		h8.184v35.376h-7.92v7.128H343.464z"/>
	<path fill="#FFFFFF" d="M372.768,279.072h6.336l16.104,42.768h10.824l16.368-42.768h6.336v-7.392h-22.44v7.392h6.336l-10.56,29.304
		c-0.792,2.112-1.058,4.752-1.058,4.752h-0.264c0,0-0.264-2.376-1.056-4.752l-10.562-29.304h6.336v-7.392h-22.44v7.392H372.768
		L372.768,279.072z"/>
	<path fill="#FFFFFF" d="M432.696,307.848c0,10.296,8.184,15.05,16.632,15.05c12.144,0,16.632-10.562,16.632-10.562h0.264
		c0,0-0.526,1.32-0.526,3.168v0.792c0,3.168,1.848,5.544,6.336,5.544h10.032v-7.392h-5.018c-1.319,0-2.112-0.792-2.112-2.112v-22.44
		c0-12.672-6.6-19.272-19.534-19.272c-11.616,0-19.01,5.808-19.01,5.808l3.96,6.864c0,0,6.338-4.752,14.258-4.752
		c6.07,0,10.56,2.64,10.56,10.56v1.848H462C453.552,290.952,432.696,292.008,432.696,307.848z M442.464,307.056
		c0-9.504,15.84-9.768,20.328-9.768h2.376v2.112c0,7.656-5.28,16.368-13.728,16.368C445.632,315.504,442.464,311.28,442.464,307.056
		z"/>
	<path fill="#FFFFFF" d="M488.664,296.76c0,15.576,8.448,26.138,21.912,26.138c12.936,0,16.896-10.032,16.896-10.032h0.266
		c0,0-0.266,1.056-0.266,2.64v0.792c0,3.168,1.85,5.544,6.336,5.544h10.032v-7.392h-5.28c-1.318,0-2.11-0.792-2.11-2.112V251.88
		h-17.952v7.392h8.184v15.84c0,2.112,0.266,3.696,0.266,3.696h-0.266c0,0-3.96-8.448-15.576-8.448
		C497.904,270.36,488.664,280.656,488.664,296.76z M498.432,296.76c0-11.352,6.336-17.952,14.521-17.952
		c9.504,0,14.256,8.712,14.256,17.952c0,12.408-7.128,17.952-14.521,17.952C504.24,314.448,498.432,307.584,498.432,296.76z"/>
	<path fill="#FFFFFF" d="M550.704,296.76c0,14.784,10.824,26.138,26.398,26.138c11.882,0,19.536-6.864,19.536-6.864l-3.96-7.128
		c0,0-6.336,5.544-15.048,5.544c-8.976,0-16.632-5.81-17.424-16.896h36.696c0,0,0.264-2.376,0.264-3.696
		c0-12.936-7.392-23.496-21.648-23.496C561.528,270.36,550.704,280.656,550.704,296.76z M561,291.48
		c1.32-8.448,7.392-13.464,14.52-13.464c6.337,0,11.616,4.488,11.882,13.464H561z"/>
	<path fill="#FFFFFF" d="M610.104,307.32c0,11.614,6.072,14.52,13.2,14.52c2.376,0,4.226-0.264,4.226-0.264v-7.92
		c0,0-1.058,0-2.642,0c-4.486,0-5.278-2.904-5.278-7.128V251.88h-17.952v7.392h8.446V307.32z"/>
	<path fill="#FFFFFF" d="M635.448,321.576h25.344v-7.394h-7.92v-15.84c0-10.032,6.6-19.272,16.632-19.272
		c7.92,0,9.504,5.544,9.504,12.672v29.832h17.424v-7.394h-7.92V289.63c0-12.672-5.016-19.272-16.632-19.272
		c-12.672,0-18.479,9.504-19.536,12.144h-0.264c0,0,0.264-1.32,0.264-2.904v-2.64c0-3.696-2.11-5.544-6.336-5.544h-11.352v7.392
		h6.072c1.318,0,2.11,0.792,2.11,2.112v33h-7.92v7.656h0.529V321.576z"/>
	<path fill="#FFFFFF" d="M711.216,261.648h10.032v-9.768h-10.032V261.648z M703.56,321.576h25.346v-7.394h-7.92V271.68h-17.952
		v7.392h8.447v35.376h-7.92L703.56,321.576L703.56,321.576z"/>
	<path fill="#FFFFFF" d="M280.368,423.744c0,7.92,10.56,11.88,19.536,11.88c11.352,0,20.064-5.28,20.064-14.784
		c0-9.24-8.712-12.672-16.632-15.048c-6.072-2.112-11.616-3.96-11.616-8.712c0-3.96,4.224-6.072,8.976-6.072
		c4.752,0,8.712,2.112,8.712,5.28v3.168h8.448v-6.072c0-7.392-10.296-10.032-17.424-10.032c-8.712,0-18.48,3.96-18.48,13.729
		c0,8.976,8.184,12.408,15.576,15.312c6.864,2.376,12.408,3.96,12.408,8.978c0,4.224-4.488,6.336-10.032,6.336
		c-5.544,0-11.616-2.112-11.616-6.336v-3.17h-8.448v5.544H280.368L280.368,423.744z"/>
	<path fill="#FFFFFF" d="M327.36,446.976v7.394h25.344v-7.394h-7.92v-15.312c0-2.64-0.264-4.224-0.264-4.224h0.264
		c0,0,4.488,8.446,15.576,8.446c13.2,0,22.704-10.296,22.704-26.136c0-15.576-8.448-26.136-21.912-26.136
		c-12.672,0-16.896,9.504-16.896,9.504h-0.264c0,0,0.264-1.32,0.264-2.904v-0.527c0-2.903-1.584-5.017-6.072-5.017h-11.088v7.394
		h6.072c1.32,0,2.112,0.792,2.112,2.11v52.8L327.36,446.976L327.36,446.976z M344.52,409.752c0-12.672,6.864-17.952,14.256-17.952
		c8.448,0,14.256,7.128,14.256,17.952c0,11.354-6.6,17.952-14.52,17.952C349.536,427.44,344.52,418.728,344.52,409.752z"/>
	<path fill="#FFFFFF" d="M390.984,409.488c0,15.312,12.144,26.398,26.928,26.398s26.928-11.088,26.928-26.398
		c0-15.048-12.144-26.138-26.928-26.138S390.984,394.176,390.984,409.488z M400.752,409.488c0-10.296,7.656-17.952,17.16-17.952
		s17.16,7.392,17.16,17.952c0,10.56-7.92,17.952-17.16,17.952S400.752,420.048,400.752,409.488z"/>
	<path fill="#FFFFFF" d="M457.512,420.312c0,11.614,6.072,14.52,13.2,14.52c2.376,0,4.224-0.264,4.224-0.264v-7.92
		c0,0-1.056,0-2.64,0c-4.488,0-5.28-2.904-5.28-7.13v-54.91h-17.95V372h8.446V420.312z"/>
	<path fill="#FFFFFF" d="M482.064,409.488c0,14.784,10.822,26.136,26.398,26.136c11.88,0,19.536-6.864,19.536-6.864l-3.96-7.128
		c0,0-6.336,5.544-15.048,5.544c-8.978,0-16.632-5.808-17.424-16.896h36.694c0,0,0.266-2.376,0.266-3.696
		c0-12.936-7.394-23.496-21.648-23.496C492.888,383.352,482.064,393.648,482.064,409.488z M492.36,404.208
		c1.318-8.448,7.392-13.464,14.52-13.464c6.336,0,11.616,4.488,11.88,13.464H492.36z"/>
	<path fill="#FFFFFF" d="M536.184,434.568h24.024v-7.394h-6.6v-16.104h3.96c2.11,0,3.432,0.264,4.752,2.11l10.031,16.896
		c2.111,3.96,3.695,4.752,8.185,4.752h7.392v-7.393h-3.168c-2.64,0-3.432-0.527-4.486-2.111l-8.448-14.521
		c-2.112-3.432-3.696-3.96-3.696-3.96v-0.526l12.408-14.521h6.6v-7.392h-22.703v7.392h6.601L561,403.68h-7.392v-39.07h-17.952V372
		h8.446v55.176h-7.92L536.184,434.568L536.184,434.568z"/>
</g>
<path fill="none" stroke="#009CFF" stroke-width="13.2236" stroke-miterlimit="10" d="M243.943,455.637
	c0-17.378-18.181-38.674-18.181-52.585c0-13.903,18.181-38.667,18.181-52.571c0-13.91-18.181-38.674-18.181-52.583
	c0-13.908,18.181-38.674,18.181-52.583c0-13.911-18.181-38.674-18.181-52.581c0-13.911,18.181-38.677,18.181-52.584"/>
</svg>
