<?xml version="1.0" encoding="utf-8"?>
<!-- Generator: Adobe Illustrator 16.0.0, SVG Export Plug-In . SVG Version: 6.00 Build 0)  -->
<!DOCTYPE svg PUBLIC "-//W3C//DTD SVG 1.1//EN" "http://www.w3.org/Graphics/SVG/1.1/DTD/svg11.dtd">
<svg version="1.1" id="Layer_1" xmlns="http://www.w3.org/2000/svg" xmlns:xlink="http://www.w3.org/1999/xlink" x="0px" y="0px"
	 width="792px" height="351.035px" viewBox="-180.019 278.316 792 351.035" enable-background="new -180.019 278.316 792 351.035"
	 xml:space="preserve">
<path fill="#FFFFFF" d="M-109.608,551.834h75.109v-21.396H-58.08v-56.334h22.708c11.791,0,15.284,2.619,20.087,10.48l29.694,52.838
	c6.55,11.354,10.48,14.41,26.638,14.41h16.594v-21.396h-5.677c-6.987,0-10.48-0.875-13.537-6.115l-27.074-47.598
	c-3.493-6.111-8.297-9.17-8.297-9.17v-0.438c24.454-6.111,39.738-26.201,39.738-54.146c0-26.201-13.537-43.232-33.625-49.785
	c-10.48-3.49-21.834-3.928-35.372-3.928h-83.406v20.961h24.018v150.219h-24.018V551.834L-109.608,551.834z M-58.517,451.834v-70.305
	h31.878c9.17,0,17.467,0.873,23.581,3.492c12.228,4.803,17.904,15.285,17.904,30.129c0,22.711-13.974,36.246-34.935,36.246h-38.428
	V451.834z"/>
<path fill="#FFFFFF" d="M112.663,386.332h27.511V359.26h-27.948v27.072H112.663z M91.702,551.834h69.869v-20.523h-21.834V413.844
	H89.956v20.523h22.708v96.941H91.266v20.523h0.437V551.834z"/>
<path fill="#FFFFFF" d="M215.747,551.834h75.983v-21.398h-24.455v-60.26l54.149-89.957h18.341v-20.963h-65.939v20.963h20.087
	l-35.808,60.699c-2.62,3.93-3.93,8.299-3.93,8.299h-0.437c0,0-1.747-3.932-3.93-8.299L214,380.221h20.087v-20.963h-66.376v20.963
	h18.341l54.148,89.955v60.264h-24.454V551.834z"/>
<path fill="#FFFFFF" d="M314.874,482.402c0,41.922,33.188,72.488,74.673,72.488s74.672-30.566,74.672-72.488
	s-33.188-72.053-74.672-72.053S314.874,440.918,314.874,482.402z M341.948,482.402c0-28.822,21.397-48.908,47.599-48.908
	c25.764,0,47.598,20.523,47.598,48.908c0,28.82-21.397,49.781-47.598,49.781C363.345,532.184,341.948,511.223,341.948,482.402z"/>
<path fill="none" stroke="#009CFF" stroke-width="15" stroke-miterlimit="10" d="M550.698,607.074
	c0-24.973-26.126-55.576-26.126-75.568c0-19.982,26.126-55.57,26.126-75.553c0-19.99-26.126-55.578-26.126-75.568
	c0-19.988,26.126-55.576,26.126-75.565"/>
</svg>
