<?xml version="1.0" encoding="utf-8"?>
<svg  x="0px" y="0px" viewBox="0 0 300 150">
<path id="squiggle" fill="#009CFF" d="M89.6,131.6l-0.1-1.2l-0.2-1.1l-0.3-1.2l-0.3-1.2l-0.4-1.2l-0.5-1.3l-1-2.6l-1.1-2.6l-0.5-1.3
	l-0.5-1.3l-0.4-1.3l-0.3-1.3l-0.2-1.3l-0.1-1.3l0.1-1.3l0.2-1.3l0.3-1.3l0.4-1.4l0.5-1.4l0.5-1.4l2.1-5.5l0.5-1.3l0.4-1.2l0.3-1.2
	l0.2-1.1l0.2-0.9l0-0.8l0-0.8l-0.2-0.9l-0.2-1.1l-0.3-1.2l-0.4-1.2L88,85l-1-2.7l-1.1-2.8l-0.5-1.4l-0.5-1.4l-0.4-1.4l-0.3-1.3
	L84,72.7l-0.1-1.3l0.1-1.3l0.2-1.3l0.3-1.3l0.4-1.4l0.5-1.4l0.5-1.4l1.1-2.8l1-2.7l0.5-1.3l0.4-1.2l0.3-1.2l0.2-1.1l0.2-0.9l0-0.8
	l0-0.8l-0.2-0.9l-0.2-1.1l-0.3-1.2l-0.4-1.2L88,45l-1-2.7l-1.1-2.8l-0.5-1.4l-0.5-1.4l-0.4-1.4L84.2,34L84,32.7l-0.1-1.3l0.1-1.3
	l0.2-1.3l0.3-1.3l0.4-1.4l0.5-1.4l0.5-1.4l2.1-5.5l0.5-1.3l0.4-1.2l0.3-1.2l0.2-1.1l0.2-0.9l0.1-0.9l4.6,0.3l-0.1,1.2L94,14
	l-0.3,1.3l-0.4,1.4l-0.5,1.4l-0.5,1.4l-2.1,5.5l-0.5,1.3l-0.4,1.2L89,28.6l-0.2,1.1l-0.2,0.9l0,0.8l0,0.8l0.2,0.9l0.2,1.1l0.3,1.2
	l0.4,1.2l0.5,1.3l1,2.7l1.1,2.8l0.5,1.4l0.5,1.4l0.4,1.4l0.3,1.3l0.2,1.3l0.1,1.3l-0.1,1.3L94,54l-0.3,1.3l-0.4,1.4l-0.5,1.4
	l-0.5,1.4l-1.1,2.8l-1,2.7l-0.5,1.3l-0.4,1.2L89,68.7l-0.2,1.1l-0.2,0.9l0,0.8l0,0.8l0.2,0.9l0.2,1.1l0.3,1.2l0.4,1.2l0.5,1.3l1,2.7
	l1.1,2.8l0.5,1.4l0.5,1.4l0.4,1.4l0.3,1.3l0.2,1.3l0.1,1.3l-0.1,1.3L94,94.1l-0.3,1.3l-0.4,1.4l-0.5,1.4l-0.5,1.4l-2.1,5.5l-0.5,1.3
	l-0.4,1.2l-0.3,1.2l-0.2,1.1l-0.2,0.9l0,0.8l0,0.8l0.1,0.9l0.2,1l0.3,1.1l0.4,1.2l0.5,1.2l1,2.6l1.1,2.7l0.5,1.4l0.5,1.4l0.4,1.4
	l0.3,1.5l0.2,1.5l0.1,1.4L89.6,131.6z"/>
<g id="mark">
	<path fill="#FFFFFF" d="M7.8,64.4H25v-4.9h-5.4V46.6h5.2c2.7,0,3.5,0.6,4.6,2.4l6.8,12.1c1.5,2.6,2.4,3.3,6.1,3.3h3.8v-4.9h-1.3
		c-1.6,0-2.4-0.2-3.1-1.4l-6.2-10.9c-0.8-1.4-1.9-2.1-1.9-2.1v-0.1c5.6-1.4,9.1-6,9.1-12.4c0-6-3.1-9.9-7.7-11.4
		c-2.4-0.8-5-0.9-8.1-0.9H7.8v4.8h5.5v34.4H7.8V64.4z M19.5,41.5V25.4h7.3c2.1,0,4,0.2,5.4,0.8c2.8,1.1,4.1,3.5,4.1,6.9
		c0,5.2-3.2,8.3-8,8.3H19.5z"/>
	<path fill="#FFFFFF" d="M58.7,26.5H65v-6.2h-6.4V26.5z M53.9,64.4h16v-4.7h-5V32.8H53.5v4.7h5.2v22.2h-4.9V64.4z"/>
	<path fill="#FFFFFF" d="M14.3,120.7h17.4v-4.9h-5.6V102l12.4-20.6h4.2v-4.8H27.6v4.8h4.6L24,95.3c-0.6,0.9-0.9,1.9-0.9,1.9h-0.1
		c0,0-0.4-0.9-0.9-1.9l-8.2-13.9h4.6v-4.8H3.3v4.8h4.2L19.9,102v13.8h-5.6V120.7z"/>
	<path fill="#FFFFFF" d="M37,104.8c0,9.6,7.6,16.6,17.1,16.6s17.1-7,17.1-16.6c0-9.6-7.6-16.5-17.1-16.5S37,95.3,37,104.8z
		 M43.2,104.8c0-6.6,4.9-11.2,10.9-11.2c5.9,0,10.9,4.7,10.9,11.2c0,6.6-4.9,11.4-10.9,11.4C48.1,116.2,43.2,111.4,43.2,104.8z"/>
</g>
<g id="claim">
	<path fill="#FFFFFF" d="M105.9,34.4c0,3.9,3.1,5.7,6.3,5.7c4.6,0,6.3-4,6.3-4h0.1c0,0-0.1,0.5-0.1,1.2v0.3c0,1.2,0.7,2.1,2.4,2.1
		h3.8v-2.8h-1.9c-0.5,0-0.8-0.3-0.8-0.8v-8.5c0-4.8-2.5-7.3-7.4-7.3c-4.4,0-7.2,2.2-7.2,2.2l1.5,2.6c0,0,2.4-1.8,5.4-1.8
		c2.3,0,4,1,4,4V28H117C113.8,28,105.9,28.4,105.9,34.4z M109.6,34.1c0-3.6,6-3.7,7.7-3.7h0.9v0.8c0,2.9-2,6.2-5.2,6.2
		C110.8,37.3,109.6,35.8,109.6,34.1z"/>
	<path fill="#FFFFFF" d="M127.3,39.7h9.6v-2.8h-3v-5.8c0-3.7,2.1-7.5,5.7-7.5c2.9,0,3.3,2.3,3.3,4.8v11.4h6.6v-2.8h-3V31
		c0-3.8,2-7.4,5.6-7.4c2.9,0,3.3,2.1,3.3,4.8v11.4h6.6v-2.8h-3v-9.3c0-4.8-2-7.3-6.2-7.3c-3.1,0-5.7,2.1-6.8,4.5h-0.1
		c-0.6-3.1-2.5-4.5-5.6-4.5c-3.1,0-5.8,2.4-6.8,4.6h-0.1c0,0,0.1-0.5,0.1-1.1v-1c0-1.4-0.8-2.1-2.4-2.1h-4.3v2.8h2.3
		c0.5,0,0.8,0.3,0.8,0.8v12.6h-3V39.7z"/>
	<path fill="#FFFFFF" d="M164.2,34.4c0,3.9,3.1,5.7,6.3,5.7c4.6,0,6.3-4,6.3-4h0.1c0,0-0.1,0.5-0.1,1.2v0.3c0,1.2,0.7,2.1,2.4,2.1
		h3.8v-2.8H181c-0.5,0-0.8-0.3-0.8-0.8v-8.5c0-4.8-2.5-7.3-7.4-7.3c-4.4,0-7.2,2.2-7.2,2.2l1.5,2.6c0,0,2.4-1.8,5.4-1.8
		c2.3,0,4,1,4,4V28h-1.2C172.2,28,164.2,28.4,164.2,34.4z M167.9,34.1c0-3.6,6-3.7,7.7-3.7h0.9v0.8c0,2.9-2,6.2-5.2,6.2
		C169.2,37.3,167.9,35.8,167.9,34.1z"/>
	<path fill="#FFFFFF" d="M187.7,32.8c0,6.3,4.8,7.1,7.2,7.1c0.8,0,1.3-0.1,1.3-0.1v-3c0,0-0.3,0-0.9,0c-1.4,0-4-0.5-4-4.4v-8.9h4.5
		v-2.8h-4.5v-5.2h-3.6v5.2h-3.3v2.8h3.2V32.8z"/>
	<path fill="#FFFFFF" d="M206.1,18h3.4l4.7-4.8H210L206.1,18z M198.9,30.2c0,5.6,4.1,9.9,10,9.9c4.5,0,7.4-2.6,7.4-2.6l-1.5-2.7
		c0,0-2.4,2.1-5.7,2.1c-3.4,0-6.3-2.2-6.6-6.4h13.9c0,0,0.1-0.9,0.1-1.4c0-4.9-2.8-8.9-8.2-8.9C202.9,20.3,198.9,24.2,198.9,30.2z
		 M202.7,28.2c0.5-3.2,2.8-5.1,5.5-5.1c2.4,0,4.4,1.7,4.5,5.1H202.7z"/>
	<path fill="#FFFFFF" d="M220,39.7h9.3v-2.8h-2.8v-5c0-3.7,1.7-7.8,5.8-7.8c0.6,0,1.1,0.1,1.1,0.1v-3.6c0,0-0.5-0.1-0.9-0.1
		c-2.9,0-5.1,2.2-6,5h-0.1c0,0,0.1-0.6,0.1-1.3v-1.2c0-1.5-0.8-2.2-2.4-2.2h-4.3v2.8h2.4c0.5,0,0.8,0.3,0.8,0.8v12.5H220V39.7z"/>
	<path fill="#FFFFFF" d="M235.5,35.6c0,3,4,4.5,7.4,4.5c4.3,0,7.6-2,7.6-5.6c0-3.5-3.3-4.8-6.3-5.7c-2.3-0.8-4.4-1.5-4.4-3.3
		c0-1.5,1.6-2.3,3.4-2.3c1.8,0,3.3,0.8,3.3,2v1.2h3.2v-2.3c0-2.8-3.9-3.8-6.6-3.8c-3.3,0-7,1.5-7,5.2c0,3.4,3.1,4.7,5.9,5.8
		c2.6,0.9,4.7,1.5,4.7,3.4c0,1.6-1.7,2.4-3.8,2.4c-2.1,0-4.4-0.8-4.4-2.4v-1.2h-3.2V35.6z"/>
	<path fill="#FFFFFF" d="M253.2,39.7h9.1v-2.8h-2.5v-6.1h1.5c0.8,0,1.3,0.1,1.8,0.8l3.8,6.4c0.8,1.5,1.4,1.8,3.1,1.8h2.8v-2.8h-1.2
		c-1,0-1.3-0.1-1.7-0.8l-3.2-5.5c-0.8-1.3-1.4-1.5-1.4-1.5V29l4.7-5.5h2.5v-2.8h-8.6v2.8h2.5l-3.8,4.5h-2.8V13.2H253V16h3.2v20.9h-3
		V39.7z"/>
	<path fill="#FFFFFF" d="M276.4,43.6l-1.2,2.7c0,0,1.7,1.2,4.1,1.2c2.9,0,5.4-1.6,6.7-4.9l7.5-19.2h2.4v-2.8h-8.4v2.8h2.4l-4.2,11.3
		c-0.3,0.8-0.4,1.6-0.4,1.6h-0.1c0,0-0.1-0.8-0.3-1.6l-4.2-11.3h2.5v-2.8h-8.7v2.8h2.4l6.6,16.5l-0.8,1.9c-0.6,1.5-1.9,2.6-3.5,2.6
		S276.4,43.6,276.4,43.6z"/>
	<path fill="#FFFFFF" d="M106.3,71.5c0,5.9,3.2,9.9,8.3,9.9c4.9,0,6.4-3.8,6.4-3.8h0.1c0,0-0.1,0.4-0.1,1v0.3c0,1.2,0.7,2.1,2.4,2.1
		h3.8v-2.8h-1.9c-0.5,0-0.8-0.3-0.8-0.8V54.5h-6.8v2.8h3.1v6c0,0.8,0.1,1.4,0.1,1.4h-0.1c0,0-1.5-3.2-5.9-3.2
		C109.8,61.5,106.3,65.4,106.3,71.5z M110,71.5c0-4.3,2.4-6.8,5.5-6.8c3.6,0,5.4,3.3,5.4,6.8c0,4.7-2.7,6.8-5.5,6.8
		C112.2,78.2,110,75.6,110,71.5z"/>
	<path fill="#FFFFFF" d="M133,58.2h3.8v-3.7H133V58.2z M130.1,80.9h9.6v-2.8h-3V62h-6.8v2.8h3.1v13.4h-3V80.9z"/>
	<path fill="#FFFFFF" d="M141.2,64.8h2.4l6.1,16.2h4.1l6.2-16.2h2.4V62h-8.5v2.8h2.4l-4,11.1c-0.3,0.8-0.4,1.8-0.4,1.8h-0.1
		c0,0-0.1-0.9-0.4-1.8l-4-11.1h2.4V62h-8.5V64.8z"/>
	<path fill="#FFFFFF" d="M163.9,75.7c0,3.9,3.1,5.7,6.3,5.7c4.6,0,6.3-4,6.3-4h0.1c0,0-0.2,0.5-0.2,1.2v0.3c0,1.2,0.7,2.1,2.4,2.1
		h3.8v-2.8h-1.9c-0.5,0-0.8-0.3-0.8-0.8v-8.5c0-4.8-2.5-7.3-7.4-7.3c-4.4,0-7.2,2.2-7.2,2.2l1.5,2.6c0,0,2.4-1.8,5.4-1.8
		c2.3,0,4,1,4,4v0.7H175C171.8,69.3,163.9,69.7,163.9,75.7z M167.6,75.4c0-3.6,6-3.7,7.7-3.7h0.9v0.8c0,2.9-2,6.2-5.2,6.2
		C168.8,78.6,167.6,77,167.6,75.4z"/>
	<path fill="#FFFFFF" d="M185.1,71.5c0,5.9,3.2,9.9,8.3,9.9c4.9,0,6.4-3.8,6.4-3.8h0.1c0,0-0.1,0.4-0.1,1v0.3c0,1.2,0.7,2.1,2.4,2.1
		h3.8v-2.8H204c-0.5,0-0.8-0.3-0.8-0.8V54.5h-6.8v2.8h3.1v6c0,0.8,0.1,1.4,0.1,1.4h-0.1c0,0-1.5-3.2-5.9-3.2
		C188.6,61.5,185.1,65.4,185.1,71.5z M188.8,71.5c0-4.3,2.4-6.8,5.5-6.8c3.6,0,5.4,3.3,5.4,6.8c0,4.7-2.7,6.8-5.5,6.8
		C191,78.2,188.8,75.6,188.8,71.5z"/>
	<path fill="#FFFFFF" d="M208.6,71.5c0,5.6,4.1,9.9,10,9.9c4.5,0,7.4-2.6,7.4-2.6l-1.5-2.7c0,0-2.4,2.1-5.7,2.1
		c-3.4,0-6.3-2.2-6.6-6.4h13.9c0,0,0.1-0.9,0.1-1.4c0-4.9-2.8-8.9-8.2-8.9C212.7,61.5,208.6,65.4,208.6,71.5z M212.5,69.5
		c0.5-3.2,2.8-5.1,5.5-5.1c2.4,0,4.4,1.7,4.5,5.1H212.5z"/>
	<path fill="#FFFFFF" d="M231.1,75.5c0,4.4,2.3,5.5,5,5.5c0.9,0,1.6-0.1,1.6-0.1l0-3c0,0-0.4,0-1,0c-1.7,0-2-1.1-2-2.7V54.5h-6.8
		v2.8h3.2V75.5z"/>
	<path fill="#FFFFFF" d="M240.7,80.9h9.6v-2.8h-3v-6c0-3.8,2.5-7.3,6.3-7.3c3,0,3.6,2.1,3.6,4.8v11.3h6.6v-2.8h-3v-9.3
		c0-4.8-1.9-7.3-6.3-7.3c-4.8,0-7,3.6-7.4,4.6H247c0,0,0.1-0.5,0.1-1.1v-1c0-1.4-0.8-2.1-2.4-2.1h-4.3v2.8h2.3
		c0.5,0,0.8,0.3,0.8,0.8v12.5h-3V80.9z"/>
	<path fill="#FFFFFF" d="M269.4,58.2h3.8v-3.7h-3.8V58.2z M266.5,80.9h9.6v-2.8h-3V62h-6.8v2.8h3.2v13.4h-3V80.9z"/>
	<path fill="#FFFFFF" d="M106.2,119.6c0,3,4,4.5,7.4,4.5c4.3,0,7.6-2,7.6-5.6c0-3.5-3.3-4.8-6.3-5.7c-2.3-0.8-4.4-1.5-4.4-3.3
		c0-1.5,1.6-2.3,3.4-2.3c1.8,0,3.3,0.8,3.3,2v1.2h3.2v-2.3c0-2.8-3.9-3.8-6.6-3.8c-3.3,0-7,1.5-7,5.2c0,3.4,3.1,4.7,5.9,5.8
		c2.6,0.9,4.7,1.5,4.7,3.4c0,1.6-1.7,2.4-3.8,2.4c-2.1,0-4.4-0.8-4.4-2.4v-1.2h-3.2V119.6z"/>
	<path fill="#FFFFFF" d="M124,128.4v2.8h9.6v-2.8h-3v-5.8c0-1-0.1-1.6-0.1-1.6h0.1c0,0,1.7,3.2,5.9,3.2c5,0,8.6-3.9,8.6-9.9
		c0-5.9-3.2-9.9-8.3-9.9c-4.8,0-6.4,3.6-6.4,3.6h-0.1c0,0,0.1-0.5,0.1-1.1v-0.2c0-1.1-0.6-1.9-2.3-1.9h-4.2v2.8h2.3
		c0.5,0,0.8,0.3,0.8,0.8v20H124z M130.5,114.3c0-4.8,2.6-6.8,5.4-6.8c3.2,0,5.4,2.7,5.4,6.8c0,4.3-2.5,6.8-5.5,6.8
		C132.4,121,130.5,117.7,130.5,114.3z"/>
	<path fill="#FFFFFF" d="M148.1,114.2c0,5.8,4.6,10,10.2,10s10.2-4.2,10.2-10c0-5.7-4.6-9.9-10.2-9.9S148.1,108.4,148.1,114.2z
		 M151.8,114.2c0-3.9,2.9-6.8,6.5-6.8c3.6,0,6.5,2.8,6.5,6.8c0,4-3,6.8-6.5,6.8C154.8,121,151.8,118.2,151.8,114.2z"/>
	<path fill="#FFFFFF" d="M173.3,118.3c0,4.4,2.3,5.5,5,5.5c0.9,0,1.6-0.1,1.6-0.1l0-3c0,0-0.4,0-1,0c-1.7,0-2-1.1-2-2.7V97.2h-6.8
		v2.8h3.2V118.3z"/>
	<path fill="#FFFFFF" d="M182.6,114.2c0,5.6,4.1,9.9,10,9.9c4.5,0,7.4-2.6,7.4-2.6l-1.5-2.7c0,0-2.4,2.1-5.7,2.1
		c-3.4,0-6.3-2.2-6.6-6.4h13.9c0,0,0.1-0.9,0.1-1.4c0-4.9-2.8-8.9-8.2-8.9C186.7,104.3,182.6,108.2,182.6,114.2z M186.5,112.2
		c0.5-3.2,2.8-5.1,5.5-5.1c2.4,0,4.4,1.7,4.5,5.1H186.5z"/>
	<path fill="#FFFFFF" d="M203.1,123.7h9.1v-2.8h-2.5v-6.1h1.5c0.8,0,1.3,0.1,1.8,0.8l3.8,6.4c0.8,1.5,1.4,1.8,3.1,1.8h2.8v-2.8h-1.2
		c-1,0-1.3-0.2-1.7-0.8l-3.2-5.5c-0.8-1.3-1.4-1.5-1.4-1.5V113l4.7-5.5h2.5v-2.8h-8.6v2.8h2.5l-3.8,4.5h-2.8V97.2h-6.8v2.8h3.2v20.9
		h-3V123.7z"/>
</g>
</svg>
