<?xml version="1.0" encoding="utf-8"?>
<!-- Generator: Adobe Illustrator 16.0.0, SVG Export Plug-In . SVG Version: 6.00 Build 0)  -->
<!DOCTYPE svg PUBLIC "-//W3C//DTD SVG 1.1//EN" "http://www.w3.org/Graphics/SVG/1.1/DTD/svg11.dtd">
<svg version="1.1" id="Layer_1" xmlns="http://www.w3.org/2000/svg" xmlns:xlink="http://www.w3.org/1999/xlink" x="0px" y="0px"
	 width="225.828px" height="223px" viewBox="0 0 225.828 223" enable-background="new 0 0 225.828 223" xml:space="preserve">
<g>
	<path fill="#FF5380" d="M192.397,76.176h-0.534c-4.398-39.68-38.102-70.648-78.954-70.648c-40.844,0-74.551,30.969-78.957,70.648
		H33.43c-14.635,0-26.493,11.858-26.493,26.493c0,18.611,11.552,34.462,27.852,40.956c6.645,37.316,37.852,73.848,78.121,73.848
		c40.267,0,71.485-36.531,78.126-73.848c16.3-6.494,27.856-22.345,27.856-40.956C218.892,88.034,207.024,76.176,192.397,76.176
		 M33.43,122.401c-5.411-4.852-8.831-11.901-8.831-19.732c0-4.864,3.968-8.831,8.831-8.831V122.401z M69.461,41.098
		c27.934,10.97,58.964,10.97,86.905,0c9.331,9.249,15.696,21.461,17.662,35.078H51.799C53.757,62.559,60.117,50.347,69.461,41.098z
		 M112.909,199.811c-31.71,0-56.871-31.512-61.118-61.817h30.723c7.603,0,14.359-4.864,16.762-12.082l3.018-14.597
		c1.035-5.032,5.477-8.646,10.616-8.646c5.141,0,9.582,3.614,10.617,8.646l3.018,14.597c2.397,7.218,9.159,12.082,16.748,12.082
		h30.736C169.785,168.299,144.62,199.811,112.909,199.811z M192.397,122.401V93.838c4.864,0,8.832,3.967,8.832,8.831
		C201.229,110.5,197.797,117.55,192.397,122.401z"/>
	<path fill="#FF5380" d="M121.741,155.655h-17.663c-4.885,0-8.831,3.959-8.831,8.831c0,4.873,3.946,8.831,8.831,8.831h17.663
		c4.89,0,8.839-3.958,8.839-8.831C130.58,159.614,126.631,155.655,121.741,155.655"/>
</g>
</svg>
